<?xml version="1.0" encoding="utf-8"?>
<!-- Generator: Adobe Illustrator 24.1.0, SVG Export Plug-In . SVG Version: 6.00 Build 0)  -->
<svg version="1.1" id="Layer_1" xmlns="http://www.w3.org/2000/svg" xmlns:xlink="http://www.w3.org/1999/xlink" x="0px" y="0px"
	 viewBox="0 0 53 4" style="enable-background:new 0 0 53 4;" xml:space="preserve">
<style type="text/css">
	.st0{fill:#FF7800;}
</style>
<path class="st0" d="M51,3.8h1.5v-3H51V3.8z M4.3,3.8h1.5v-3H4.3V3.8z M12.8,0.8h-1.5v3h1.5V0.8z M21.3,3.8h1.5v-3h-1.5V3.8z
	 M29.8,0.8h-1.5v3h1.5V0.8z M38.3,3.8h1.5v-3h-1.5V3.8z M46.8,0.8h-1.5v3h1.5V0.8z M0,3.8h4.3v-3H0V3.8z M12.8,3.8h8.5v-3h-8.5V3.8z
	 M29.8,3.8h8.5v-3h-8.5V3.8z M46.8,3.8H51v-3h-4.3V3.8z"/>
</svg>
